# xmcd
# Copyright (C) 1995-1998 Ti Kan
#
# Track frame offsets:
#       150
#       19914
#       43743
#       61411
#       82548
#       103048
#       140182
#       162797
#       174804
#       200727
#       231010
#
# Disc length: 3414 seconds
#
# Revision: 1
# Processed by: cddbd v1.5.1PL2 Copyright (c) Steve Scherf et al.
# Submitted via: CD-Transfer v1.0
#
DISCID=8a0d540b
DTITLE=Goldies Sendung - 
DYEAR=1900
DGENRE=
TTITLE0=Wop 010506 - Song 1
TTITLE1=Wop 010506 - Song 2
TTITLE2=Wop 010506 - Song 3
TTITLE3=Wop 010506 - Song 4
TTITLE4=Wop 010506 - Song 5
TTITLE5=Wop 010506 - Song 6
TTITLE6=Wop 010506 - Song 7
TTITLE7=Wop 010506 - Song 8
TTITLE8=Wop 010506 - Song 9
TTITLE9=Wop 010506 - Song 10
TTITLE10=Wop 010506 - Song 11
EXTD=
EXTT0=
EXTT1=
EXTT2=
EXTT3=
EXTT4=
EXTT5=
EXTT6=
EXTT7=
EXTT8=
EXTT9=
EXTT10=
PLAYORDER=
